<svg xmlns="http://www.w3.org/2000/svg" xmlns:xlink="http://www.w3.org/1999/xlink" width="326" zoomAndPan="magnify" viewBox="0 0 244.5 50.999998" height="68" preserveAspectRatio="xMidYMid meet" version="1.0"><defs><g/><clipPath id="baf34f560f"><path d="M 0.429688 0.410156 L 50.578125 0.410156 L 50.578125 50.558594 L 0.429688 50.558594 Z M 0.429688 0.410156 " clip-rule="nonzero"/></clipPath></defs><path fill="#a8f2fe" d="M 26.332031 33.15625 L 26.332031 44.910156 C 27.144531 44.871094 27.945312 44.773438 28.730469 44.632812 C 31.457031 42.664062 33.691406 38.445312 34.828125 33.15625 Z M 26.332031 33.15625 " fill-opacity="1" fill-rule="nonzero"/><path fill="#a8f2fe" d="M 24.3125 17.449219 L 24.3125 5.695312 C 23.5 5.734375 22.699219 5.832031 21.914062 5.972656 C 19.1875 7.941406 16.953125 12.160156 15.816406 17.449219 Z M 24.3125 17.449219 " fill-opacity="1" fill-rule="nonzero"/><path fill="#a8f2fe" d="M 43.3125 17.449219 C 41.261719 12.773438 37.4375 9.042969 32.699219 7.113281 C 34.613281 9.6875 36.097656 13.257812 36.921875 17.449219 Z M 43.3125 17.449219 " fill-opacity="1" fill-rule="nonzero"/><path fill="#a8f2fe" d="M 28.730469 5.972656 C 27.945312 5.835938 27.144531 5.734375 26.332031 5.695312 L 26.332031 17.449219 L 34.832031 17.449219 C 33.695312 12.160156 31.457031 7.941406 28.730469 5.972656 Z M 28.730469 5.972656 " fill-opacity="1" fill-rule="nonzero"/><path fill="#a8f2fe" d="M 21.914062 44.632812 C 22.699219 44.773438 23.5 44.871094 24.3125 44.910156 L 24.3125 33.15625 L 15.8125 33.15625 C 16.953125 38.445312 19.1875 42.667969 21.914062 44.632812 Z M 21.914062 44.632812 " fill-opacity="1" fill-rule="nonzero"/><path fill="#a8f2fe" d="M 7.332031 33.15625 C 9.382812 37.832031 13.207031 41.5625 17.945312 43.492188 C 16.03125 40.917969 14.546875 37.347656 13.722656 33.15625 Z M 7.332031 33.15625 " fill-opacity="1" fill-rule="nonzero"/><path fill="#a8f2fe" d="M 32.699219 43.492188 C 37.4375 41.5625 41.261719 37.835938 43.3125 33.15625 L 36.921875 33.15625 C 36.097656 37.347656 34.613281 40.917969 32.699219 43.492188 Z M 32.699219 43.492188 " fill-opacity="1" fill-rule="nonzero"/><path fill="#a8f2fe" d="M 17.945312 7.113281 C 13.207031 9.042969 9.382812 12.773438 7.332031 17.449219 L 13.722656 17.449219 C 14.546875 13.257812 16.027344 9.6875 17.945312 7.113281 Z M 17.945312 7.113281 " fill-opacity="1" fill-rule="nonzero"/><g clip-path="url(#baf34f560f)"><path fill="#a8f2fe" d="M 25.324219 0.410156 C 11.597656 0.410156 0.429688 11.578125 0.429688 25.304688 C 0.429688 39.027344 11.597656 50.195312 25.324219 50.195312 C 39.046875 50.195312 50.214844 39.027344 50.214844 25.304688 C 50.214844 11.578125 39.046875 0.410156 25.324219 0.410156 Z M 25.324219 47.691406 C 12.976562 47.691406 2.933594 37.648438 2.933594 25.304688 C 2.933594 12.957031 12.976562 2.914062 25.324219 2.914062 C 37.667969 2.914062 47.710938 12.957031 47.710938 25.304688 C 47.710938 37.648438 37.667969 47.691406 25.324219 47.691406 Z M 25.324219 47.691406 " fill-opacity="1" fill-rule="nonzero"/></g><path fill="#a8f2fe" d="M 11.496094 29.289062 L 13.191406 23.765625 L 13.285156 23.765625 L 14.980469 29.289062 L 16.328125 29.289062 L 19.140625 21.230469 L 17.679688 21.230469 L 15.648438 27.03125 L 13.847656 21.230469 L 12.628906 21.230469 L 10.828125 27.03125 L 8.796875 21.230469 L 7.332031 21.230469 L 10.148438 29.289062 Z M 11.496094 29.289062 " fill-opacity="1" fill-rule="nonzero"/><path fill="#a8f2fe" d="M 28.414062 29.289062 L 31.226562 21.230469 L 29.761719 21.230469 L 27.734375 27.03125 L 25.933594 21.230469 L 24.710938 21.230469 L 22.914062 27.03125 L 20.882812 21.230469 L 19.417969 21.230469 L 22.234375 29.289062 L 23.582031 29.289062 L 25.277344 23.765625 L 25.371094 23.765625 L 27.0625 29.289062 Z M 28.414062 29.289062 " fill-opacity="1" fill-rule="nonzero"/><path fill="#a8f2fe" d="M 39.816406 27.03125 L 38.019531 21.230469 L 36.796875 21.230469 L 34.996094 27.03125 L 32.96875 21.230469 L 31.503906 21.230469 L 34.316406 29.289062 L 35.667969 29.289062 L 37.363281 23.765625 L 37.453125 23.765625 L 39.148438 29.289062 L 40.5 29.289062 L 43.3125 21.230469 L 41.847656 21.230469 Z M 39.816406 27.03125 " fill-opacity="1" fill-rule="nonzero"/><g fill="#f5fef9" fill-opacity="1"><g transform="translate(66.327096, 33.443206)"><g><path d="M 5.96875 -7.5625 C 6.46875 -7.5625 6.90625 -7.625 7.28125 -7.75 C 7.664062 -7.875 7.976562 -8.046875 8.21875 -8.265625 C 8.457031 -8.492188 8.632812 -8.757812 8.75 -9.0625 C 8.875 -9.375 8.9375 -9.710938 8.9375 -10.078125 C 8.9375 -10.804688 8.695312 -11.363281 8.21875 -11.75 C 7.738281 -12.144531 7 -12.34375 6 -12.34375 L 4.296875 -12.34375 L 4.296875 -7.5625 Z M 12.875 0 L 10.453125 0 C 9.984375 0 9.648438 -0.175781 9.453125 -0.53125 L 6.421875 -5.15625 C 6.304688 -5.332031 6.179688 -5.457031 6.046875 -5.53125 C 5.910156 -5.601562 5.707031 -5.640625 5.4375 -5.640625 L 4.296875 -5.640625 L 4.296875 0 L 1.609375 0 L 1.609375 -14.421875 L 6 -14.421875 C 6.976562 -14.421875 7.816406 -14.316406 8.515625 -14.109375 C 9.222656 -13.910156 9.800781 -13.628906 10.25 -13.265625 C 10.695312 -12.898438 11.023438 -12.460938 11.234375 -11.953125 C 11.453125 -11.441406 11.5625 -10.882812 11.5625 -10.28125 C 11.5625 -9.789062 11.488281 -9.328125 11.34375 -8.890625 C 11.207031 -8.460938 11.003906 -8.070312 10.734375 -7.71875 C 10.460938 -7.363281 10.128906 -7.050781 9.734375 -6.78125 C 9.335938 -6.519531 8.882812 -6.316406 8.375 -6.171875 C 8.550781 -6.066406 8.710938 -5.945312 8.859375 -5.8125 C 9.003906 -5.675781 9.140625 -5.515625 9.265625 -5.328125 Z M 12.875 0 "/></g></g></g><g fill="#f5fef9" fill-opacity="1"><g transform="translate(79.155792, 33.443206)"><g><path d="M 13.765625 -14.421875 L 13.765625 0 L 11.078125 0 L 11.078125 -6.3125 L 4.296875 -6.3125 L 4.296875 0 L 1.609375 0 L 1.609375 -14.421875 L 4.296875 -14.421875 L 4.296875 -8.21875 L 11.078125 -8.21875 L 11.078125 -14.421875 Z M 13.765625 -14.421875 "/></g></g></g><g fill="#f5fef9" fill-opacity="1"><g transform="translate(94.528274, 33.443206)"><g><path d="M 7.796875 -5.59375 L 7.796875 0 L 5.125 0 L 5.125 -5.59375 L -0.125 -14.421875 L 2.234375 -14.421875 C 2.460938 -14.421875 2.644531 -14.363281 2.78125 -14.25 C 2.925781 -14.144531 3.039062 -14.003906 3.125 -13.828125 L 5.765625 -9.015625 C 5.921875 -8.722656 6.054688 -8.453125 6.171875 -8.203125 C 6.285156 -7.953125 6.390625 -7.695312 6.484375 -7.4375 C 6.566406 -7.695312 6.664062 -7.953125 6.78125 -8.203125 C 6.894531 -8.453125 7.023438 -8.722656 7.171875 -9.015625 L 9.796875 -13.828125 C 9.867188 -13.972656 9.976562 -14.109375 10.125 -14.234375 C 10.269531 -14.359375 10.457031 -14.421875 10.6875 -14.421875 L 13.0625 -14.421875 Z M 7.796875 -5.59375 "/></g></g></g><g fill="#f5fef9" fill-opacity="1"><g transform="translate(107.456729, 33.443206)"><g><path d="M 11.6875 -12.21875 L 7.328125 -12.21875 L 7.328125 0 L 4.65625 0 L 4.65625 -12.21875 L 0.296875 -12.21875 L 0.296875 -14.421875 L 11.6875 -14.421875 Z M 11.6875 -12.21875 "/></g></g></g><g fill="#f5fef9" fill-opacity="1"><g transform="translate(119.427522, 33.443206)"><g><path d="M 17.25 -14.421875 L 17.25 0 L 14.890625 0 L 14.890625 -9.3125 C 14.890625 -9.6875 14.90625 -10.09375 14.9375 -10.53125 L 10.578125 -2.328125 C 10.378906 -1.941406 10.066406 -1.75 9.640625 -1.75 L 9.265625 -1.75 C 8.835938 -1.75 8.519531 -1.941406 8.3125 -2.328125 L 3.90625 -10.5625 C 3.925781 -10.332031 3.941406 -10.113281 3.953125 -9.90625 C 3.960938 -9.695312 3.96875 -9.5 3.96875 -9.3125 L 3.96875 0 L 1.609375 0 L 1.609375 -14.421875 L 3.625 -14.421875 C 3.75 -14.421875 3.851562 -14.414062 3.9375 -14.40625 C 4.03125 -14.40625 4.109375 -14.390625 4.171875 -14.359375 C 4.242188 -14.335938 4.304688 -14.296875 4.359375 -14.234375 C 4.421875 -14.171875 4.476562 -14.09375 4.53125 -14 L 8.84375 -5.984375 C 8.957031 -5.773438 9.0625 -5.554688 9.15625 -5.328125 C 9.257812 -5.097656 9.359375 -4.863281 9.453125 -4.625 C 9.546875 -4.875 9.640625 -5.113281 9.734375 -5.34375 C 9.835938 -5.570312 9.945312 -5.789062 10.0625 -6 L 14.3125 -14 C 14.363281 -14.09375 14.421875 -14.171875 14.484375 -14.234375 C 14.546875 -14.296875 14.609375 -14.335938 14.671875 -14.359375 C 14.742188 -14.390625 14.820312 -14.40625 14.90625 -14.40625 C 15 -14.414062 15.101562 -14.421875 15.21875 -14.421875 Z M 17.25 -14.421875 "/></g></g></g><g fill="#f5fef9" fill-opacity="1"><g transform="translate(138.281513, 33.443206)"><g><path d="M 4.296875 -12.296875 L 4.296875 -8.296875 L 9.34375 -8.296875 L 9.34375 -6.21875 L 4.296875 -6.21875 L 4.296875 -2.140625 L 10.703125 -2.140625 L 10.703125 0 L 1.609375 0 L 1.609375 -14.421875 L 10.703125 -14.421875 L 10.703125 -12.296875 Z M 4.296875 -12.296875 "/></g></g></g><g fill="#f5fef9" fill-opacity="1"><g transform="translate(149.753516, 33.443206)"><g><path d="M 10.0625 -2.21875 L 10.0625 0 L 1.609375 0 L 1.609375 -14.421875 L 4.296875 -14.421875 L 4.296875 -2.21875 Z M 10.0625 -2.21875 "/></g></g></g><g fill="#f5fef9" fill-opacity="1"><g transform="translate(160.118223, 33.443206)"><g><path d="M 15.359375 -7.21875 C 15.359375 -6.15625 15.179688 -5.171875 14.828125 -4.265625 C 14.484375 -3.367188 13.992188 -2.59375 13.359375 -1.9375 C 12.722656 -1.28125 11.953125 -0.765625 11.046875 -0.390625 C 10.148438 -0.0234375 9.15625 0.15625 8.0625 0.15625 C 6.96875 0.15625 5.972656 -0.0234375 5.078125 -0.390625 C 4.179688 -0.765625 3.410156 -1.28125 2.765625 -1.9375 C 2.128906 -2.59375 1.632812 -3.367188 1.28125 -4.265625 C 0.925781 -5.171875 0.75 -6.15625 0.75 -7.21875 C 0.75 -8.269531 0.925781 -9.242188 1.28125 -10.140625 C 1.632812 -11.046875 2.128906 -11.828125 2.765625 -12.484375 C 3.410156 -13.148438 4.179688 -13.664062 5.078125 -14.03125 C 5.972656 -14.394531 6.96875 -14.578125 8.0625 -14.578125 C 8.789062 -14.578125 9.476562 -14.492188 10.125 -14.328125 C 10.769531 -14.160156 11.359375 -13.921875 11.890625 -13.609375 C 12.429688 -13.304688 12.914062 -12.929688 13.34375 -12.484375 C 13.78125 -12.046875 14.144531 -11.550781 14.4375 -11 C 14.738281 -10.457031 14.96875 -9.863281 15.125 -9.21875 C 15.28125 -8.582031 15.359375 -7.914062 15.359375 -7.21875 Z M 12.625 -7.21875 C 12.625 -8.007812 12.515625 -8.71875 12.296875 -9.34375 C 12.085938 -9.96875 11.785156 -10.5 11.390625 -10.9375 C 10.992188 -11.382812 10.515625 -11.722656 9.953125 -11.953125 C 9.398438 -12.179688 8.769531 -12.296875 8.0625 -12.296875 C 7.351562 -12.296875 6.71875 -12.179688 6.15625 -11.953125 C 5.59375 -11.722656 5.113281 -11.382812 4.71875 -10.9375 C 4.320312 -10.5 4.015625 -9.96875 3.796875 -9.34375 C 3.585938 -8.71875 3.484375 -8.007812 3.484375 -7.21875 C 3.484375 -6.425781 3.585938 -5.710938 3.796875 -5.078125 C 4.015625 -4.453125 4.320312 -3.921875 4.71875 -3.484375 C 5.113281 -3.046875 5.59375 -2.710938 6.15625 -2.484375 C 6.71875 -2.253906 7.351562 -2.140625 8.0625 -2.140625 C 8.769531 -2.140625 9.398438 -2.253906 9.953125 -2.484375 C 10.515625 -2.710938 10.992188 -3.046875 11.390625 -3.484375 C 11.785156 -3.921875 12.085938 -4.453125 12.296875 -5.078125 C 12.515625 -5.710938 12.625 -6.425781 12.625 -7.21875 Z M 12.625 -7.21875 "/></g></g></g></svg>