<svg id="visual" viewBox="0 0 900 600" width="900" height="600" xmlns="http://www.w3.org/2000/svg" xmlns:xlink="http://www.w3.org/1999/xlink" version="1.1"><path d="M0 217L15 205C30 193 60 169 90 162C120 155 150 165 180 177C210 189 240 203 270 211C300 219 330 221 360 211C390 201 420 179 450 177C480 175 510 193 540 210C570 227 600 243 630 243C660 243 690 227 720 215C750 203 780 195 810 199C840 203 870 219 885 227L900 235L900 0L885 0C870 0 840 0 810 0C780 0 750 0 720 0C690 0 660 0 630 0C600 0 570 0 540 0C510 0 480 0 450 0C420 0 390 0 360 0C330 0 300 0 270 0C240 0 210 0 180 0C150 0 120 0 90 0C60 0 30 0 15 0L0 0Z" fill="#4d448b"></path><path d="M0 283L15 282C30 281 60 279 90 274C120 269 150 261 180 267C210 273 240 293 270 300C300 307 330 301 360 290C390 279 420 263 450 263C480 263 510 279 540 305C570 331 600 367 630 374C660 381 690 359 720 337C750 315 780 293 810 290C840 287 870 303 885 311L900 319L900 233L885 225C870 217 840 201 810 197C780 193 750 201 720 213C690 225 660 241 630 241C600 241 570 225 540 208C510 191 480 173 450 175C420 177 390 199 360 209C330 219 300 217 270 209C240 201 210 187 180 175C150 163 120 153 90 160C60 167 30 191 15 203L0 215Z" fill="#423b7c"></path><path d="M0 307L15 307C30 307 60 307 90 307C120 307 150 307 180 313C210 319 240 331 270 338C300 345 330 347 360 340C390 333 420 317 450 311C480 305 510 309 540 331C570 353 600 393 630 406C660 419 690 405 720 384C750 363 780 335 810 326C840 317 870 327 885 332L900 337L900 317L885 309C870 301 840 285 810 288C780 291 750 313 720 335C690 357 660 379 630 372C600 365 570 329 540 303C510 277 480 261 450 261C420 261 390 277 360 288C330 299 300 305 270 298C240 291 210 271 180 265C150 259 120 267 90 272C60 277 30 279 15 280L0 281Z" fill="#37326d"></path><path d="M0 385L15 377C30 369 60 353 90 345C120 337 150 337 180 352C210 367 240 397 270 410C300 423 330 419 360 410C390 401 420 387 450 387C480 387 510 401 540 416C570 431 600 447 630 452C660 457 690 451 720 433C750 415 780 385 810 380C840 375 870 395 885 405L900 415L900 335L885 330C870 325 840 315 810 324C780 333 750 361 720 382C690 403 660 417 630 404C600 391 570 351 540 329C510 307 480 303 450 309C420 315 390 331 360 338C330 345 300 343 270 336C240 329 210 317 180 311C150 305 120 305 90 305C60 305 30 305 15 305L0 305Z" fill="#2c295e"></path><path d="M0 493L15 503C30 513 60 533 90 534C120 535 150 517 180 505C210 493 240 487 270 487C300 487 330 493 360 489C390 485 420 471 450 469C480 467 510 477 540 493C570 509 600 531 630 533C660 535 690 517 720 509C750 501 780 503 810 499C840 495 870 485 885 480L900 475L900 413L885 403C870 393 840 373 810 378C780 383 750 413 720 431C690 449 660 455 630 450C600 445 570 429 540 414C510 399 480 385 450 385C420 385 390 399 360 408C330 417 300 421 270 408C240 395 210 365 180 350C150 335 120 335 90 343C60 351 30 367 15 375L0 383Z" fill="#222150"></path><path d="M0 553L15 557C30 561 60 569 90 564C120 559 150 541 180 536C210 531 240 539 270 543C300 547 330 547 360 547C390 547 420 547 450 546C480 545 510 543 540 549C570 555 600 569 630 574C660 579 690 575 720 573C750 571 780 571 810 572C840 573 870 575 885 576L900 577L900 473L885 478C870 483 840 493 810 497C780 501 750 499 720 507C690 515 660 533 630 531C600 529 570 507 540 491C510 475 480 465 450 467C420 469 390 483 360 487C330 491 300 485 270 485C240 485 210 491 180 503C150 515 120 533 90 532C60 531 30 511 15 501L0 491Z" fill="#181842"></path><path d="M0 601L15 601C30 601 60 601 90 601C120 601 150 601 180 601C210 601 240 601 270 601C300 601 330 601 360 601C390 601 420 601 450 601C480 601 510 601 540 601C570 601 600 601 630 601C660 601 690 601 720 601C750 601 780 601 810 601C840 601 870 601 885 601L900 601L900 575L885 574C870 573 840 571 810 570C780 569 750 569 720 571C690 573 660 577 630 572C600 567 570 553 540 547C510 541 480 543 450 544C420 545 390 545 360 545C330 545 300 545 270 541C240 537 210 529 180 534C150 539 120 557 90 562C60 567 30 559 15 555L0 551Z" fill="#0f1035"></path></svg>